<svg xmlns="http://www.w3.org/2000/svg" viewBox="0 0 288 304" fill="currentColor">
  <!-- Smart glasses frame -->
  <path d="M24 148c4-52 36-96 84-118 38-17 78-18 116-4 46 19 78 58 88 104 8 38 4 76-12 110-28 58-82 96-148 104-58 7-112-12-148-54-28-33-40-74-32-116 2-9 6-18 12-26z"/>
  <path fill="#000" opacity="0.35" d="M78 168c0-28 22-50 50-50s50 22 50 50-22 50-50 50-50-22-50-50zm132 0c0-28 22-50 50-50s50 22 50 50-22 50-50 50-50-22-50-50z"/>
  <!-- Bridge -->
  <rect x="126" y="156" width="36" height="10" rx="5"/>
  <!-- Claw accent (OpenClaw) -->
  <path d="M196 92c18-8 34-2 42 12 6 11 4 24-6 32-8 7-20 8-30 2l-6-4c8-6 12-16 8-26-4-10-14-16-24-14 6-1 12 0 16 2z"/>
  <!-- i dot -->
  <circle cx="92" cy="108" r="14"/>
</svg>